# xmcd
#
# Track frame offsets:
#	182
#	12285
#	21925
#	31997
#	44392
#	54182
#	64360
#	76847
#	89540
#	100905
#	113102
#	123410
#	134240
#	147395
#	159217
#	170830
#	183835
#	196345
#	209852
#	222252
#
# Disc length: 3151 seconds
#
# Revision: 0
# Processed by: cddbd v1.5.2PL0 Copyright (c) Steve Scherf et al.
# Submitted via: dBpowerAMP V4.0
#
DISCID=260c4d14
DTITLE=Eddie Arnold - 40 Famous Records
DYEAR=1900
DGENRE=Country
TTITLE0=Make The World Go Away
TTITLE1=Misty Blue
TTITLE2=The Last Word In Lonesome Is Me
TTITLE3=Nobody's Darlin' But Mine
TTITLE4=What's He Doin' In My World
TTITLE5=I Wanna Play House With You
TTITLE6=Lonely Again
TTITLE7=Then You Can Tell Me Goodbye
TTITLE8=Turn The World Around
TTITLE9=I Want To Go With You
TTITLE10=Answer Me My Love
TTITLE11=Moonlight and Roses
TTITLE12=Anytime
TTITLE13=Just Call Me Lonesome
TTITLE14=It's A Sin
TTITLE15=I Really Don't Want To Know
TTITLE16=Cattle Call
TTITLE17=Molly Darling
TTITLE18=I'll Hold You In My Heart
TTITLE19=I'm Thinking Tonight of My Blue Eyes
EXTD=
EXTT0=
EXTT1=
EXTT2=
EXTT3=
EXTT4=
EXTT5=
EXTT6=
EXTT7=
EXTT8=
EXTT9=
EXTT10=
EXTT11=
EXTT12=
EXTT13=
EXTT14=
EXTT15=
EXTT16=
EXTT17=
EXTT18=
EXTT19=
PLAYORDER=
